<svg width="162" height="2" viewBox="0 0 162 2" fill="none" xmlns="http://www.w3.org/2000/svg">
<path d="M68.4189 0.00144563C72.5696 -0.0181142 76.5642 0.166446 80.729 0.166799C85.9001 0.167255 91.1535 -0.00909803 96.3367 0.0237423C101.49 0.0565907 106.668 0.103763 111.829 0.161922C116.997 0.220083 122.156 0.289211 127.326 0.36578C132.485 0.442349 137.656 0.526341 142.819 0.614481C146.325 0.67435 149.836 0.736154 153.343 0.798721C154.882 0.826144 156.417 0.853691 157.955 0.881337C159.103 0.902011 160.251 0.922686 161.399 0.94336C161.558 0.946274 161.711 0.958099 161.824 0.976869C161.937 0.995671 162 1.01974 162 1.04462C162 1.06951 161.936 1.09364 161.823 1.11237C161.71 1.13105 161.556 1.14271 161.397 1.14551C160.239 1.16554 159.082 1.18556 157.924 1.20559C156.639 1.2278 155.355 1.25005 154.07 1.27212C153.868 1.17003 153.59 1.09259 153.07 1.05839C152.804 1.04095 152.417 1.03369 152.132 1.05266C151.875 1.06971 151.682 1.1001 151.499 1.12906C151.308 1.15936 151.126 1.18812 150.892 1.19828C150.495 1.21553 150.117 1.25887 149.721 1.30441C149.577 1.32099 149.43 1.33787 149.278 1.35388C148.051 1.37464 146.824 1.39524 145.598 1.41566C145.124 1.40479 144.688 1.396 144.318 1.40019C143.987 1.40395 143.683 1.42551 143.381 1.45234C143.191 1.45547 143.001 1.4586 142.811 1.46172C141.585 1.48182 140.359 1.50159 139.133 1.52119C138.176 1.49395 137.173 1.46749 135.869 1.45588C135.307 1.45087 134.753 1.43614 134.22 1.422C133.433 1.40112 132.692 1.38149 132.043 1.39617C131.609 1.40598 131.152 1.39155 130.697 1.37716C130.086 1.35786 129.477 1.3386 128.924 1.37789C128.576 1.4026 128.257 1.43264 127.962 1.46051C127.491 1.50484 127.081 1.54362 126.708 1.54629C126.009 1.5513 125.404 1.5836 124.871 1.61209C124.229 1.64636 123.691 1.67511 123.218 1.64414C123.146 1.63944 123.064 1.6332 122.972 1.6261C122.486 1.5887 121.707 1.52888 120.59 1.56177C120.193 1.57348 119.819 1.60392 119.453 1.63378C118.921 1.67726 118.404 1.71946 117.85 1.70068C117.767 1.69787 117.681 1.68609 117.602 1.67533C117.502 1.66166 117.415 1.64972 117.363 1.6601C117.211 1.69056 116.97 1.72423 116.708 1.76087C116.516 1.78779 116.312 1.81633 116.124 1.84629C114.689 1.86322 113.254 1.87944 111.818 1.89479C111.161 1.90183 110.503 1.9087 109.844 1.91538C109.508 1.86952 109.164 1.8282 108.8 1.79694C108.325 1.75609 107.709 1.74358 106.915 1.72737C106.33 1.71544 105.649 1.70149 104.857 1.6729C103.39 1.61998 101.883 1.63185 100.917 1.66023C100.713 1.66623 100.508 1.67263 100.288 1.6796C99.4552 1.70603 98.4158 1.73912 96.4417 1.77562C94.5744 1.81014 92.9863 1.8191 91.7933 1.82582C91.1843 1.82926 90.6782 1.83202 90.2904 1.8374C89.6268 1.8466 88.8119 1.8548 87.994 1.86299C86.7138 1.8758 85.4257 1.88864 84.6964 1.90576C84.4368 1.91185 84.1644 1.91939 83.8702 1.92745C83.055 1.94977 82.0702 1.97671 80.713 1.99228C79.2882 2.00861 78.4051 1.99747 77.4877 1.97327C77.1149 1.96343 76.7859 1.92452 76.447 1.88431C75.9662 1.82727 75.4645 1.76773 74.7859 1.78549C74.6275 1.78964 74.4584 1.79891 74.2817 1.80864C73.9569 1.82652 73.6056 1.8459 73.2459 1.8374C73.1205 1.83444 73.01 1.82387 72.9017 1.81352C72.7826 1.80213 72.6657 1.79099 72.5334 1.79037C72.0391 1.78805 71.558 1.79068 71.1306 1.79305C70.5794 1.79609 70.1171 1.79863 69.8303 1.78939C69.3191 1.77292 68.7601 1.78766 68.1939 1.80267C67.7615 1.81414 67.3247 1.8258 66.9017 1.82363C65.6933 1.81743 64.0313 1.84553 62.3188 1.89236C61.6709 1.91006 61.1219 1.88588 60.4185 1.85483C59.981 1.83551 59.4837 1.81346 58.8656 1.79731C58.5151 1.78816 58.2183 1.8097 57.9435 1.8296C57.6904 1.84794 57.4557 1.86489 57.2149 1.85532C57.0024 1.84685 56.868 1.81063 56.7403 1.77623C56.5983 1.73795 56.4646 1.70195 56.241 1.70897C56.122 1.71271 55.9774 1.73083 55.8053 1.75235C55.7373 1.76086 55.6646 1.76987 55.5878 1.77879C55.5917 1.77145 55.5927 1.76488 55.5927 1.7599C55.593 1.72477 55.3648 1.70626 55.141 1.68813C55.0516 1.6809 54.9626 1.67375 54.8895 1.66559C54.6204 1.63557 54.1108 1.63069 53.7215 1.63208C53.5568 1.63266 53.4075 1.62177 53.2333 1.60905C53.0786 1.59776 52.9043 1.58502 52.6821 1.57761C52.5553 1.57339 52.4579 1.56321 52.3774 1.5547C52.3191 1.54855 52.2695 1.54329 52.2235 1.54191C52.1837 1.54072 52.1515 1.55079 52.1154 1.56214C52.0894 1.5703 52.0611 1.57915 52.0264 1.58492C51.9434 1.59872 51.8367 1.60288 51.7619 1.59845C51.7273 1.5964 51.7 1.59248 51.6729 1.58858C51.6413 1.58404 51.6099 1.57946 51.5666 1.57786C51.3679 1.57052 51.1747 1.58201 50.974 1.59394C50.7533 1.60706 50.5232 1.62068 50.267 1.61051C50.1864 1.60731 50.1005 1.59997 50.0173 1.59285C49.9303 1.58539 49.8457 1.57819 49.7738 1.57627C49.4819 1.56849 49.2075 1.59362 48.955 1.61673C48.7871 1.6321 48.6287 1.64656 48.4817 1.64987C48.2121 1.65593 48.0674 1.68609 47.9607 1.70836C47.9054 1.7199 47.8603 1.72938 47.813 1.73224C47.7696 1.7314 47.7257 1.73041 47.6826 1.72932C47.6431 1.7271 47.6023 1.72481 47.564 1.72554C47.5611 1.7256 47.5582 1.72573 47.5553 1.72579C47.3143 1.71848 47.0775 1.7081 46.8422 1.69776C46.3137 1.67453 45.7917 1.65153 45.2397 1.6645C45.1208 1.66729 44.9996 1.67975 44.8764 1.6924C44.7254 1.7079 44.5709 1.72376 44.4135 1.72262C44.0384 1.7199 43.6598 1.69936 43.2869 1.67912C42.7261 1.64868 42.1779 1.61895 41.674 1.65158C41.5077 1.66235 41.3454 1.68029 41.1827 1.69837C41.092 1.70845 41.0009 1.71861 40.909 1.72749C40.9284 1.711 40.9388 1.69551 40.9485 1.68107C40.9684 1.6513 40.9856 1.62582 41.074 1.60418C41.2827 1.55303 41.5192 1.48262 41.4929 1.43127C41.4858 1.41733 41.4916 1.40181 41.4979 1.38618C41.5137 1.34697 41.5298 1.30693 41.336 1.28882C41.2053 1.27662 40.8697 1.2486 40.6562 1.27859C40.6097 1.28512 40.5814 1.29807 40.5499 1.31246C40.4933 1.33832 40.4259 1.36894 40.2236 1.37607C40.1896 1.37727 40.1525 1.37835 40.1142 1.37936C39.9616 1.38338 39.7907 1.38782 39.7268 1.4086C39.6532 1.43255 39.6689 1.45997 39.6872 1.49195C39.7111 1.5336 39.7394 1.58306 39.5809 1.64268C39.5495 1.65447 39.4896 1.65851 39.4443 1.66157C39.4125 1.66373 39.3881 1.66546 39.3856 1.669C39.3829 1.67308 39.3931 1.68155 39.406 1.69228C39.4518 1.73011 39.5311 1.79622 39.1996 1.79902C39.11 1.79977 39.0073 1.79663 38.9153 1.79378C38.7798 1.78959 38.6672 1.78613 38.6521 1.79695C38.6465 1.80105 38.6424 1.8055 38.6391 1.81011C38.5312 1.80881 38.4232 1.80751 38.3153 1.80621C38.1768 1.79332 37.9825 1.79442 37.74 1.79585C37.6811 1.7962 37.619 1.79652 37.5546 1.79671C37.3416 1.79404 37.1285 1.79138 36.9156 1.78866C36.7467 1.7832 36.567 1.77429 36.3773 1.76015C35.9972 1.73182 35.6665 1.68509 35.3434 1.63939C35.2073 1.62014 35.0724 1.60103 34.9356 1.58359C34.9889 1.58144 35.037 1.57891 35.074 1.57542C35.3274 1.55155 35.4291 1.50459 35.5226 1.46137C35.5848 1.43262 35.6436 1.4055 35.7408 1.38801C35.9188 1.35596 35.9009 1.31849 35.8879 1.29077C35.8811 1.2764 35.8759 1.26462 35.8996 1.25763C35.9187 1.25203 35.9628 1.24939 36.0084 1.24666C36.0481 1.24428 36.0891 1.2418 36.1153 1.23728C36.4336 1.18241 36.3379 1.15057 36.1987 1.10422C36.122 1.07865 36.0322 1.04865 35.9911 1.00795C35.9557 0.964858 35.9676 0.952251 36.1344 0.935085C36.0045 0.913801 35.8745 0.892518 35.7445 0.871234C35.6935 0.872617 35.6549 0.885924 35.6005 0.908034C35.5035 0.947518 35.1874 0.961948 34.9405 0.973225C34.8262 0.978446 34.7267 0.983012 34.6705 0.989066C34.3717 1.02126 34.4586 1.0661 34.5351 1.10556C34.5772 1.12727 34.616 1.14737 34.5858 1.16283C34.5729 1.16944 34.5913 1.176 34.6099 1.18269C34.6242 1.18786 34.639 1.19312 34.6396 1.19853C34.6435 1.23782 34.4667 1.26698 34.3028 1.29406C34.2088 1.30957 34.1193 1.32445 34.0698 1.34012C34.0547 1.3449 34.0427 1.34977 34.0315 1.3545C34.015 1.36141 33.999 1.36799 33.974 1.37363C33.9169 1.38648 33.7994 1.39514 33.6706 1.40458C33.6045 1.40942 33.5355 1.41448 33.4703 1.42042C33.3858 1.42813 33.3554 1.44367 33.3233 1.45991C33.3005 1.47138 33.2768 1.48319 33.233 1.49293C33.1539 1.51053 32.9939 1.51688 32.8456 1.52278C32.7809 1.52535 32.7184 1.5279 32.6657 1.53119C32.6443 1.53253 32.634 1.5352 32.6317 1.53887C32.3881 1.55116 32.1555 1.56373 31.9291 1.57603C30.794 1.63772 29.8115 1.6912 28.3442 1.65243C28.0668 1.6451 27.7689 1.64657 27.4679 1.65243C26.505 1.63702 25.5415 1.62111 24.5789 1.60479C24.3883 1.56939 24.1552 1.53965 23.8793 1.51632C23.3611 1.47252 22.828 1.46316 22.199 1.45211C21.734 1.44394 21.2164 1.43481 20.6133 1.41019C19.6 1.36882 18.5596 1.33382 17.3856 1.31563C16.2167 1.29753 14.8785 1.28418 13.9317 1.27944C13.4156 1.27686 12.8735 1.24519 12.3682 1.21571C11.6575 1.17425 11.0198 1.1371 10.6305 1.19098C10.5061 1.2082 10.3859 1.23809 10.269 1.26714C10.1856 1.28782 10.1035 1.30802 10.023 1.32307C9.80869 1.31839 9.59415 1.31377 9.37968 1.30905C8.99864 1.27315 8.4065 1.23465 7.83411 1.27469C7.61289 1.26974 7.39153 1.26482 7.17782 1.25983C6.71147 1.24938 6.2552 1.2388 5.79479 1.22814C5.6445 1.22462 5.49273 1.22109 5.34057 1.21754C5.33913 1.2175 5.33769 1.21746 5.33625 1.21742C5.02998 1.21028 4.7214 1.20309 4.41793 1.19585C4.28795 1.19277 4.15797 1.18968 4.02798 1.18659C3.69767 1.17876 3.36496 1.1709 3.03798 1.16295C2.86492 1.15873 2.6902 1.15454 2.51517 1.15028C2.23123 1.14337 1.94514 1.13643 1.66051 1.12944C1.2002 1.11815 0.742057 1.10672 0.283034 1.0952C0.207965 1.0933 0.135826 1.08732 0.0828093 1.07827C0.0298119 1.06919 -8.10138e-05 1.05782 1.68947e-07 1.0461C0.000103965 1.03437 0.0302494 1.02297 0.0834273 1.01393C0.13657 1.00492 0.208636 0.999087 0.283652 0.997233C0.743001 0.98603 1.20173 0.974951 1.66236 0.963967C1.94704 0.957176 2.23303 0.950326 2.51703 0.943617C2.69213 0.939481 2.86669 0.935416 3.03984 0.93131C3.36685 0.923594 3.70011 0.915884 4.03046 0.90828C4.16044 0.905274 4.29042 0.902269 4.4204 0.899263C4.72469 0.892221 5.03411 0.88525 5.34119 0.878304C5.34304 0.878263 5.3449 0.878223 5.34675 0.878182C5.49782 0.874765 5.64865 0.871342 5.79788 0.867947C6.25848 0.857608 6.715 0.847364 7.18153 0.83724C7.42257 0.831775 7.67376 0.826433 7.9231 0.821033C8.06193 0.818026 8.20049 0.815005 8.33653 0.812016C8.41091 0.810425 8.4863 0.808849 8.56209 0.807264C10.3016 0.769799 12.0289 0.733754 13.7723 0.69918C15.5091 0.664605 17.249 0.631455 18.9837 0.599625C20.7226 0.567794 22.4584 0.537336 24.1957 0.508114C35.2212 0.322547 46.2908 0.170391 57.3651 0.0751676C58.9447 0.0614951 60.5655 0.0491721 62.1483 0.0381239C63.7483 0.02707 65.3155 0.0172629 66.9197 0.00887882C67.4069 0.00625838 67.9064 0.00380232 68.4189 0.00144563Z" fill="#ECECEC"/>
</svg>
