<svg width="132" height="2" viewBox="0 0 132 2" fill="none" xmlns="http://www.w3.org/2000/svg">
<path d="M55.7487 0.00145161C59.1308 -0.0181079 62.3856 0.166452 65.7792 0.166806C69.9927 0.167263 74.2732 -0.00909007 78.4966 0.0237507C82.6954 0.0565996 86.9145 0.103772 91.1203 0.161932C95.3307 0.220093 99.5349 0.289222 103.747 0.365792C107.951 0.442361 112.164 0.526353 116.371 0.614493C119.228 0.674363 122.089 0.736167 124.946 0.798735C126.2 0.826158 127.451 0.853704 128.704 0.881351C129.64 0.902025 130.575 0.9227 131.51 0.943374C131.64 0.946288 131.765 0.958113 131.856 0.976883C131.948 0.995685 132 1.01976 132 1.04463C132 1.06953 131.948 1.09365 131.855 1.11238C131.763 1.13107 131.639 1.14273 131.509 1.14553C130.565 1.16555 129.622 1.18558 128.679 1.2056C127.632 1.22781 126.586 1.25007 125.539 1.27213C125.374 1.17004 125.147 1.0926 124.723 1.0584C124.507 1.04096 124.191 1.03371 123.959 1.05268C123.75 1.06972 123.593 1.10011 123.444 1.12908C123.288 1.15937 123.14 1.18813 122.949 1.19829C122.625 1.21554 122.318 1.25888 121.995 1.30442C121.877 1.321 121.757 1.33789 121.634 1.3539C120.634 1.37466 119.635 1.39525 118.635 1.41568C118.249 1.4048 117.894 1.39601 117.593 1.4002C117.323 1.40396 117.075 1.42553 116.829 1.45235C116.674 1.45548 116.519 1.45861 116.365 1.46174C115.366 1.48183 114.367 1.5016 113.368 1.5212C112.588 1.49396 111.771 1.4675 110.708 1.45589C110.251 1.45088 109.799 1.43615 109.364 1.42201C108.723 1.40113 108.12 1.38151 107.59 1.39618C107.237 1.40599 106.865 1.39156 106.494 1.37717C105.996 1.35787 105.499 1.33861 105.049 1.3779C104.766 1.40261 104.506 1.43265 104.265 1.46052C103.882 1.50485 103.547 1.54363 103.244 1.5463C102.674 1.55131 102.181 1.58361 101.746 1.6121C101.224 1.64637 100.785 1.67512 100.4 1.64415C100.342 1.63945 100.275 1.63321 100.2 1.62612C99.8031 1.58871 99.1691 1.52889 98.2589 1.56178C97.9349 1.57349 97.6305 1.60393 97.3324 1.63379C96.8984 1.67727 96.4771 1.71947 96.0257 1.70069C95.9583 1.69788 95.8879 1.6861 95.8238 1.67534C95.7423 1.66167 95.6711 1.64973 95.6289 1.66011C95.5053 1.69057 95.3089 1.72424 95.0957 1.76088C94.9391 1.7878 94.773 1.81634 94.6199 1.8463C93.4506 1.86323 92.2811 1.87945 91.1112 1.8948C90.5753 1.90184 90.0392 1.90871 89.5029 1.91539C89.2287 1.86953 88.9481 1.82821 88.6519 1.79695C88.2647 1.7561 87.7627 1.74359 87.1156 1.72738C86.6395 1.71545 86.0846 1.70149 85.4388 1.67291C84.2435 1.61999 83.0156 1.63186 82.2288 1.66023C82.0624 1.66624 81.8951 1.67264 81.7162 1.67961C81.0376 1.70604 80.1907 1.73913 78.5822 1.77563C77.0606 1.81015 75.7666 1.8191 74.7945 1.82583C74.2983 1.82927 73.886 1.83203 73.5699 1.83741C73.0293 1.84661 72.3653 1.85481 71.6988 1.863C70.6557 1.87581 69.6061 1.88865 69.0119 1.90577C68.8004 1.91186 68.5784 1.9194 68.3387 1.92746C67.6745 1.94978 66.8721 1.97672 65.7661 1.99228C64.6052 2.00862 63.8856 1.99748 63.1381 1.97327C62.8343 1.96343 62.5663 1.92452 62.2902 1.88432C61.8984 1.82727 61.4896 1.76773 60.9367 1.7855C60.8076 1.78965 60.6698 1.79892 60.5258 1.80865C60.2612 1.82653 59.9749 1.8459 59.6819 1.83741C59.5797 1.83444 59.4896 1.82388 59.4014 1.81352C59.3043 1.80213 59.2091 1.791 59.1013 1.79037C58.6985 1.78806 58.3065 1.79069 57.9582 1.79305C57.5091 1.7961 57.1325 1.79863 56.8988 1.7894C56.4822 1.77292 56.0267 1.78767 55.5654 1.80268C55.2131 1.81415 54.8572 1.8258 54.5125 1.82364C53.5279 1.81744 52.1736 1.84554 50.7783 1.89236C50.2504 1.91007 49.8031 1.88588 49.2299 1.85483C48.8734 1.83552 48.4682 1.81347 47.9645 1.79732C47.679 1.78817 47.4371 1.80971 47.2132 1.82961C47.007 1.84794 46.8158 1.86489 46.6196 1.85532C46.4464 1.84686 46.3369 1.81064 46.2329 1.77624C46.1171 1.73796 46.0082 1.70195 45.826 1.70898C45.7291 1.71271 45.6112 1.73083 45.471 1.75235C45.4156 1.76087 45.3564 1.76988 45.2938 1.7788C45.297 1.77145 45.2977 1.76488 45.2978 1.75991C45.298 1.72477 45.1121 1.70627 44.9297 1.68814C44.8569 1.6809 44.7843 1.67375 44.7248 1.6656C44.5055 1.63558 44.0903 1.63069 43.7731 1.63209C43.6388 1.63267 43.5172 1.62177 43.3753 1.60906C43.2493 1.59777 43.1073 1.58502 42.9261 1.57762C42.8228 1.5734 42.7435 1.56321 42.6779 1.55471C42.6304 1.54856 42.59 1.5433 42.5525 1.54191C42.5201 1.54073 42.4938 1.5508 42.4644 1.56214C42.4432 1.57031 42.4201 1.57915 42.3919 1.58493C42.3243 1.59873 42.2373 1.60289 42.1764 1.59845C42.1482 1.59641 42.1259 1.59249 42.1038 1.58858C42.0781 1.58404 42.0525 1.57946 42.0172 1.57786C41.8553 1.57052 41.6979 1.58201 41.5343 1.59395C41.3546 1.60706 41.167 1.62069 40.9583 1.61052C40.8926 1.60732 40.8226 1.59997 40.7549 1.59285C40.684 1.58539 40.6151 1.5782 40.5565 1.57628C40.3186 1.5685 40.095 1.59362 39.8893 1.61673C39.7525 1.6321 39.6234 1.64656 39.5036 1.64988C39.2839 1.65593 39.166 1.6861 39.0791 1.70837C39.034 1.7199 38.9973 1.72938 38.9587 1.73225C38.9234 1.73141 38.8876 1.73041 38.8525 1.72932C38.8203 1.72711 38.787 1.72482 38.7558 1.72555C38.7535 1.7256 38.7511 1.72573 38.7488 1.72579C38.5524 1.71848 38.3594 1.70811 38.1677 1.69776C37.7371 1.67453 37.3117 1.65154 36.862 1.6645C36.7651 1.66729 36.6664 1.67975 36.5659 1.6924C36.4429 1.70791 36.317 1.72376 36.1888 1.72262C35.8832 1.7199 35.5747 1.69936 35.2708 1.67912C34.8138 1.64868 34.3672 1.61895 33.9566 1.65158C33.8211 1.66235 33.6889 1.68029 33.5563 1.69837C33.4824 1.70845 33.4081 1.71861 33.3332 1.7275C33.3491 1.711 33.3576 1.69551 33.3654 1.68107C33.3817 1.6513 33.3957 1.62582 33.4677 1.60418C33.6377 1.55303 33.8304 1.48262 33.8091 1.43127C33.8032 1.41734 33.808 1.40182 33.8131 1.38619C33.826 1.34698 33.8391 1.30694 33.6812 1.28883C33.5747 1.27662 33.3012 1.2486 33.1273 1.27859C33.0894 1.28512 33.0663 1.29808 33.0407 1.31247C32.9945 1.33833 32.9396 1.36895 32.7748 1.37607C32.7471 1.37727 32.7169 1.37836 32.6857 1.37936C32.5613 1.38338 32.422 1.38782 32.3699 1.40861C32.31 1.43255 32.3228 1.45998 32.3377 1.49196C32.3572 1.5336 32.3803 1.58307 32.2511 1.64269C32.2255 1.65447 32.1767 1.65851 32.1398 1.66157C32.1139 1.66373 32.094 1.66546 32.092 1.66901C32.0898 1.67308 32.0981 1.68156 32.1086 1.69228C32.1459 1.73012 32.2106 1.79622 31.9404 1.79902C31.8674 1.79978 31.7838 1.79663 31.7088 1.79378C31.5983 1.78959 31.5066 1.78614 31.4943 1.79695C31.4897 1.80106 31.4864 1.8055 31.4837 1.81011C31.3958 1.80881 31.3078 1.80751 31.2199 1.80621C31.1071 1.79332 30.9487 1.79442 30.7511 1.79586C30.7031 1.7962 30.6525 1.79652 30.6 1.79671C30.4265 1.79404 30.2529 1.79139 30.0794 1.78867C29.9418 1.7832 29.7953 1.77429 29.6408 1.76015C29.3311 1.73182 29.0616 1.68509 28.7984 1.6394C28.6874 1.62014 28.5775 1.60103 28.466 1.58359C28.5095 1.58144 28.5486 1.57891 28.5788 1.57542C28.7853 1.55156 28.8682 1.5046 28.9444 1.46137C28.9951 1.43262 29.0429 1.40551 29.1221 1.38801C29.2672 1.35597 29.2526 1.31849 29.242 1.29078C29.2364 1.2764 29.2322 1.26463 29.2515 1.25763C29.2671 1.25203 29.3031 1.2494 29.3402 1.24667C29.3725 1.24429 29.4059 1.2418 29.4273 1.23728C29.6867 1.18242 29.6087 1.15057 29.4953 1.10422C29.4327 1.07866 29.3596 1.04866 29.3261 1.00796C29.2973 0.964861 29.3069 0.952254 29.4429 0.935088C29.337 0.913804 29.2311 0.892521 29.1252 0.871237C29.0836 0.872621 29.0521 0.885927 29.0078 0.908037C28.9288 0.947521 28.6713 0.961951 28.47 0.973228C28.3769 0.978449 28.2958 0.983015 28.25 0.989069C28.0066 1.02127 28.0774 1.0661 28.1397 1.10556C28.174 1.12728 28.2057 1.14738 28.181 1.16283C28.1705 1.16944 28.1855 1.176 28.2007 1.18269C28.2123 1.18786 28.2243 1.19312 28.2248 1.19853C28.228 1.23782 28.084 1.26699 27.9504 1.29407C27.8739 1.30957 27.8009 1.32445 27.7606 1.34013C27.7483 1.3449 27.7385 1.34977 27.7293 1.35451C27.716 1.36141 27.7029 1.368 27.6825 1.37364C27.636 1.38648 27.5402 1.39515 27.4353 1.40459C27.3815 1.40943 27.3253 1.41448 27.2721 1.42043C27.2033 1.42814 27.1785 1.44367 27.1523 1.45991C27.1338 1.47138 27.1144 1.4832 27.0788 1.49293C27.0143 1.51053 26.884 1.51689 26.7631 1.52278C26.7104 1.52535 26.6595 1.5279 26.6165 1.53119C26.599 1.53253 26.5907 1.5352 26.5888 1.53887C26.3903 1.55117 26.2008 1.56373 26.0163 1.57603C25.0914 1.63772 24.2908 1.6912 23.0953 1.65244C22.8693 1.64511 22.6265 1.64657 22.3813 1.65244C21.5966 1.63702 20.8116 1.62111 20.0272 1.60479C19.872 1.56939 19.6821 1.53966 19.4572 1.51633C19.035 1.47252 18.6006 1.46316 18.0881 1.45211C17.7092 1.44394 17.2875 1.43481 16.796 1.41019C15.9704 1.36882 15.1226 1.33382 14.166 1.31563C13.2136 1.29753 12.1232 1.28418 11.3518 1.27944C10.9312 1.27686 10.4895 1.24519 10.0778 1.21572C9.49873 1.17426 8.9791 1.1371 8.66186 1.19098C8.56055 1.2082 8.46261 1.23809 8.36729 1.26714C8.29941 1.28782 8.23246 1.30802 8.16688 1.32307C7.99227 1.31839 7.81746 1.31377 7.6427 1.30905C7.33222 1.27315 6.84974 1.23465 6.38335 1.27469C6.2031 1.26974 6.02273 1.26482 5.8486 1.25983C5.46861 1.24938 5.09683 1.2388 4.72168 1.22814C4.59922 1.22462 4.47555 1.22109 4.35158 1.21754C4.3504 1.2175 4.34923 1.21746 4.34805 1.21742C4.0985 1.21028 3.84707 1.20309 3.59979 1.19585C3.49388 1.19277 3.38797 1.18968 3.28206 1.18659C3.01291 1.17876 2.74182 1.1709 2.47539 1.16295C2.33438 1.15873 2.19201 1.15454 2.0494 1.15028C1.81804 1.14337 1.58493 1.13643 1.35301 1.12944C0.977943 1.11815 0.604639 1.10672 0.230621 1.0952C0.169453 1.0933 0.110673 1.08732 0.0674742 1.07827C0.0242911 1.06919 -6.60115e-05 1.05782 1.34377e-07 1.0461C8.47127e-05 1.03437 0.0246476 1.02297 0.0679778 1.01393C0.111279 1.00492 0.169999 0.999087 0.231124 0.997233C0.605408 0.98603 0.979191 0.974951 1.35452 0.963967C1.58648 0.957176 1.81951 0.950326 2.05091 0.943618C2.19359 0.939482 2.33582 0.935416 2.4769 0.931311C2.74336 0.923594 3.0149 0.915885 3.28408 0.90828C3.38999 0.905275 3.4959 0.902269 3.60181 0.899263C3.84975 0.892221 4.10187 0.885251 4.35208 0.878305C4.35359 0.878264 4.3551 0.878223 4.35661 0.878183C4.47971 0.874765 4.6026 0.871342 4.72419 0.867947C5.0995 0.857608 5.47148 0.847365 5.85162 0.83724C6.04802 0.831776 6.2527 0.826434 6.45586 0.821034C6.56898 0.818027 6.68188 0.815005 6.79273 0.812017C6.85333 0.810426 6.91476 0.808849 6.97652 0.807264C8.39393 0.7698 9.80136 0.733755 11.2219 0.699181C12.637 0.664606 14.0547 0.631457 15.4682 0.599627C16.8851 0.567796 18.2995 0.537338 19.715 0.508116C28.6988 0.32255 37.7184 0.170395 46.7419 0.0751726C48.029 0.0615003 49.3497 0.0491773 50.6393 0.0381293C51.9431 0.0270755 53.22 0.0172686 54.5271 0.00888467C54.9242 0.00626427 55.3311 0.00380826 55.7487 0.00145161Z" fill="#323232"/>
</svg>
